<svg width="75" height="74" viewBox="0 0 75 74" fill="none" xmlns="http://www.w3.org/2000/svg">
    <ellipse cx="37" cy="38.5" rx="32" ry="32.5" fill="#D9D9D9"/>
    <path d="M45.3837 34.1023C42.9967 34.1023 41.1191 36.2647 41.1191 38.8988C41.1191 41.5328 43.0412 43.6797 45.3837 43.6797C47.7707 43.6797 49.6239 41.5262 49.6483 38.8855C49.675 36.2492 47.7707 34.1023 45.3837 34.1023Z" fill="#5865F2"/>
    <path d="M29.6157 34.1023C27.2309 34.1023 25.3511 36.2647 25.3511 38.8988C25.3511 41.5328 27.2731 43.6797 29.6157 43.6797C32.0005 43.6797 33.8648 41.5262 33.8848 38.8855C33.907 36.2492 32.0005 34.1023 29.6157 34.1023Z" fill="#5865F2"/>
    <path d="M37.3955 0.200012C17.0712 0.202237 0.597782 16.6806 0.600006 37.0033V37.0078C0.602231 57.3282 17.0779 73.8022 37.4 73.8H37.4045C57.7288 73.7978 74.2 57.3194 74.2 36.9967C74.1956 16.6718 57.7198 0.197788 37.3955 0.200012ZM61.039 49.1258C57.4151 51.8243 53.3484 53.8755 49.0237 55.188C48.0493 53.8732 47.1884 52.4806 46.4498 51.0212C47.858 50.4939 49.2173 49.8443 50.5098 49.0768C50.1761 48.8277 49.8402 48.5696 49.5177 48.3048C41.9116 51.9022 33.0953 51.9022 25.4893 48.3048C25.1756 48.5629 24.8486 48.8187 24.5104 49.0723C25.8007 49.8354 27.1555 50.4828 28.5615 51.0078C27.8207 52.4695 26.9598 53.8644 25.9876 55.1836C21.6651 53.8666 17.6007 51.8154 13.9723 49.1213C13.1358 40.2647 14.8132 31.2702 20.9933 22.0577C24.11 20.6139 27.4068 19.5927 30.7927 19.0188C31.2666 19.853 31.696 20.714 32.0809 21.5928C35.6782 21.0566 39.3354 21.0566 42.9327 21.5928C43.2708 20.7785 43.7558 19.7685 44.1851 19.0188C47.5688 19.5927 50.8612 20.6095 53.978 22.0444C59.3482 29.9443 62.0178 38.8588 61.039 49.1258Z" fill="#5865F2"/>
</svg>