<svg width="74" height="74" viewBox="0 0 74 74" fill="none" xmlns="http://www.w3.org/2000/svg">
    <path d="M37.2 73.8C57.5234 73.8 74 57.3234 74 37C74 16.6766 57.5234 0.200012 37.2 0.200012C16.8766 0.200012 0.399994 16.6766 0.399994 37C0.399994 57.3234 16.8766 73.8 37.2 73.8Z" fill="#2CB5E5"/>
    <path d="M15.7159 36.6806C15.7159 36.6806 34.1158 29.1289 40.4961 26.4711C42.9431 25.4085 51.2381 22.0032 51.2381 22.0032C51.2381 22.0032 55.0671 20.5145 54.7476 24.1307C54.6411 25.6193 53.7892 30.8305 52.9396 36.4676C51.6639 44.4452 50.2797 53.166 50.2797 53.166C50.2797 53.166 50.0667 55.613 48.2586 56.0367C46.4506 56.4626 43.4734 54.5481 42.941 54.1222C42.5151 53.8027 34.9633 49.0175 32.1991 46.677C31.4537 46.0381 30.6041 44.7624 32.3057 43.2738C36.1347 39.7642 40.707 35.4027 43.4734 32.6385C44.749 31.3629 46.0268 28.3835 40.7091 31.9996C33.1575 37.2108 25.7123 42.1047 25.7123 42.1047C25.7123 42.1047 24.0108 43.1673 20.8206 42.2112C17.6305 41.255 13.9078 39.9772 13.9078 39.9772C13.9078 39.9772 11.3544 38.3844 15.7159 36.6806Z" fill="white"/>
</svg>