<svg width="74" height="74" viewBox="0 0 74 74" fill="none" xmlns="http://www.w3.org/2000/svg">
    <path d="M73.8 37C73.8 57.3251 57.3246 73.8 36.9997 73.8C16.6767 73.8 0.199997 57.3251 0.199997 37C0.199997 16.6756 16.676 0.200012 36.9997 0.200012C57.3246 0.199355 73.8 16.6749 73.8 37Z" fill="#4C75A3"/>
    <path d="M58.2481 26.9919C57.6516 26.4893 55.3517 26.5097 53.0709 26.5202C50.7396 26.534 48.4266 26.5465 47.8925 26.7567C47.3985 26.9511 46.2824 29.6373 44.8352 32.4055C43.1969 35.5371 41.1722 38.5464 39.8926 38.5267C38.2345 38.5011 38.6175 33.3548 38.7161 29.5814C38.7811 27.0779 38.3738 26.2949 38.0085 26.0505C37.1237 25.4573 34.7141 24.8733 34.7141 24.8733C34.7141 24.8733 27.5104 24.3261 26.4777 27.4629C27.8481 27.6428 30.2162 27.204 29.3025 36.8798C29.2585 37.3482 28.1995 41.3357 24.8302 35.9391C23.9986 34.6042 20.7652 26.5517 19.6537 26.5202C15.9165 26.4183 12.2536 26.2646 10.9456 26.9919C9.75334 27.6553 12.5597 33.2227 17.3 40.6459C21.1764 46.7165 25.2808 51.4601 32.3617 52.6511C33.6847 52.7845 37.1703 52.9421 38.2444 52.4173C38.9939 52.0507 38.0834 46.7862 40.5974 46.2968C41.7293 46.0767 46.0235 51.7643 47.6593 52.4173C48.6486 52.8127 50.8348 52.9592 53.0709 52.8883C55.4904 52.8101 58.2185 53.0998 58.4833 51.4759C59.0745 47.8458 51.1895 43.1251 50.9524 40.8791C50.7809 39.2723 53.8376 36.3063 55.4247 34.0537C57.3586 31.3111 59.4535 28.0094 58.2481 26.9919Z" fill="white"/>
</svg>